<svg xmlns="http://www.w3.org/2000/svg" width="550" height="550" viewBox="0 0 550 550">
  <g id="logo" transform="translate(-788 37)">
    <g id="Ellipse_2" data-name="Ellipse 2" transform="translate(788 -37)" fill="#1573aa" stroke="#707070" stroke-width="1">
      <circle cx="275" cy="275" r="275" stroke="none"/>
      <circle cx="275" cy="275" r="274.5" fill="none"/>
    </g>
    <g id="XMLID_511_" transform="translate(884 60)">
      <g id="Group_2" data-name="Group 2" transform="translate(4.009)">
        <path id="Path_1" data-name="Path 1" d="M342.416,177.905a52.674,52.674,0,0,0-15.589-79.053,52.663,52.663,0,0,0-57.6-66.764,52.621,52.621,0,0,0-90.218-11.473,52.621,52.621,0,0,0-90.229,11.5,52.762,52.762,0,0,0-7-.465A52.2,52.2,0,0,0,39.636,52.713a52.8,52.8,0,0,0-8.453,46.153A52.669,52.669,0,0,0,15.6,177.918,52.673,52.673,0,0,0,31.19,256.97a52.662,52.662,0,0,0,57.6,66.765,52.622,52.622,0,0,0,90.219,11.473,52.621,52.621,0,0,0,90.229-11.5,52.76,52.76,0,0,0,7,.465,52.205,52.205,0,0,0,42.143-21.063,52.8,52.8,0,0,0,8.453-46.152,52.668,52.668,0,0,0,15.581-79.053Zm-174.3,125.271a30.857,30.857,0,0,1-61.143,5.912l-.148-.764a31.213,31.213,0,0,1-.434-5.148,30.715,30.715,0,0,1,3.451-14.2,52.3,52.3,0,0,0,27.48,7.728V274.918a30.862,30.862,0,0,1-30.864-30.86l-21.785,0a52.267,52.267,0,0,0,9.041,29.508,52.223,52.223,0,0,0-9.086,28.714c-.934.086-1.872.133-2.814.133A30.876,30.876,0,0,1,54.72,256.687l2.587-4.718-4.4-10.036L48.013,240.5A30.852,30.852,0,0,1,35.1,188.8H85.739a52.66,52.66,0,0,0,51.515,41.755h30.862v72.617Zm0-94.4H137.254a30.9,30.9,0,0,1-30.811-29.125c0-.054-.009-.107-.012-.161q-.039-.783-.04-1.575a30.657,30.657,0,0,1,9.04-21.822l-15.4-15.406a52.28,52.28,0,0,0-14.289,26.335H35.089a30.848,30.848,0,0,1,12.916-51.684L52.9,113.9l4.4-10.036-2.587-4.717A30.958,30.958,0,0,1,57.07,65.776,30.6,30.6,0,0,1,81.777,53.434c.956,0,1.906.047,2.85.134a52.22,52.22,0,0,0,9.085,28.686,52.266,52.266,0,0,0-9.041,29.508l21.785,0a30.862,30.862,0,0,1,30.861-30.86s0-21.785,0-21.785a52.3,52.3,0,0,0-27.48,7.728,30.728,30.728,0,0,1-3.45-14.2,31.22,31.22,0,0,1,.431-5.129l.152-.782a30.856,30.856,0,0,1,61.142,5.911ZM189.9,52.649a30.857,30.857,0,0,1,61.143-5.912l.146.754a31.241,31.241,0,0,1,.435,5.157,30.707,30.707,0,0,1-3.451,14.2,52.3,52.3,0,0,0-27.48-7.728V80.9a30.864,30.864,0,0,1,30.864,30.86l21.785,0A52.275,52.275,0,0,0,264.3,82.254a52.222,52.222,0,0,0,9.086-28.713c.934-.086,1.872-.133,2.815-.133A30.876,30.876,0,0,1,303.3,99.137l-2.592,4.73,2.189,4.929,2.222,5.1,4.889,1.432a30.852,30.852,0,0,1,12.91,51.7H272.279a52.66,52.66,0,0,0-51.516-41.755H189.9V52.649Zm141.83,163.71a30.721,30.721,0,0,1-21.719,24.129l-4.879,1.428-4.409,10.051,2.58,4.706a30.957,30.957,0,0,1-2.356,33.375,30.6,30.6,0,0,1-24.709,12.341c-.956,0-1.905-.047-2.849-.134a52.223,52.223,0,0,0-9.085-28.685,52.277,52.277,0,0,0,9.042-29.508l-21.785,0a30.864,30.864,0,0,1-30.861,30.86s0,21.785,0,21.785a52.3,52.3,0,0,0,27.48-7.728,30.715,30.715,0,0,1,3.451,14.2,31.255,31.255,0,0,1-.435,5.157l-.147.756a30.858,30.858,0,0,1-61.144-5.912V147.049h30.862a30.9,30.9,0,0,1,30.811,29.125c0,.054.009.107.012.161q.039.783.04,1.575a30.654,30.654,0,0,1-9.04,21.822l15.4,15.406a52.276,52.276,0,0,0,14.29-26.335h50.65A30.9,30.9,0,0,1,331.731,216.359Z" transform="translate(-4.009)" fill="#fff"/>
      </g>
    </g>
  </g>
</svg>
